<svg width="24" height="24" viewBox="0 0 24 24" fill="none" xmlns="http://www.w3.org/2000/svg">
<path d="M7.19625 17.0625H8.32125V12H7.19625V17.0625ZM15.6787 17.0625H16.8037V6.375H15.6787V17.0625ZM11.4375 17.0625H12.5625V14.25H11.4375V17.0625ZM11.4375 12H12.5625V9.75H11.4375V12ZM4.818 21C4.29975 21 3.86737 20.8267 3.52087 20.4802C3.17437 20.1337 3.00075 19.701 3 19.182V4.818C3 4.29975 3.17362 3.86737 3.52087 3.52087C3.86812 3.17437 4.3005 3.00075 4.818 3H19.1831C19.7006 3 20.133 3.17362 20.4802 3.52087C20.8275 3.86812 21.0007 4.3005 21 4.818V19.1831C21 19.7006 20.8267 20.133 20.4802 20.4802C20.1337 20.8275 19.701 21.0007 19.182 21H4.818ZM4.818 19.875H19.1831C19.3556 19.875 19.5142 19.803 19.659 19.659C19.8037 19.515 19.8757 19.356 19.875 19.182V4.818C19.875 4.64475 19.803 4.48575 19.659 4.341C19.515 4.19625 19.356 4.12425 19.182 4.125H4.818C4.64475 4.125 4.48575 4.197 4.341 4.341C4.19625 4.485 4.12425 4.644 4.125 4.818V19.1831C4.125 19.3556 4.197 19.5142 4.341 19.659C4.485 19.8037 4.64362 19.8757 4.81687 19.875" fill="#757575"/>
</svg>
