<svg width="52" height="52" viewBox="0 0 52 52" fill="none" xmlns="http://www.w3.org/2000/svg">
<path d="M11.9167 45.5004C13.3533 45.5004 14.731 44.9298 15.7468 43.9139C16.7627 42.8981 17.3333 41.5204 17.3333 40.0838C17.3333 38.6472 16.7627 37.2694 15.7468 36.2536C14.731 35.2378 13.3533 34.6671 11.9167 34.6671C10.4801 34.6671 9.10233 35.2378 8.0865 36.2536C7.07068 37.2694 6.5 38.6472 6.5 40.0838C6.5 41.5204 7.07068 42.8981 8.0865 43.9139C9.10233 44.9298 10.4801 45.5004 11.9167 45.5004ZM40.0833 45.5004C41.5199 45.5004 42.8977 44.9298 43.9135 43.9139C44.9293 42.8981 45.5 41.5204 45.5 40.0838C45.5 38.6472 44.9293 37.2694 43.9135 36.2536C42.8977 35.2378 41.5199 34.6671 40.0833 34.6671C38.6467 34.6671 37.269 35.2378 36.2532 36.2536C35.2374 37.2694 34.6667 38.6472 34.6667 40.0838C34.6667 41.5204 35.2374 42.8981 36.2532 43.9139C37.269 44.9298 38.6467 45.5004 40.0833 45.5004Z" fill="#FF9D00" stroke="#FF9D00" stroke-width="6" stroke-linejoin="round"/>
<path d="M16.6582 42.697L18.9581 38.8002L37.3748 6.90149" stroke="#FF9D00" stroke-width="6" stroke-linecap="round"/>
<path d="M14.6211 6.68958L33.0378 38.5883L35.3453 42.6974" stroke="#FF9D00" stroke-width="6" stroke-linecap="round"/>
</svg>
