<svg width="52" height="52" viewBox="0 0 52 52" fill="none" xmlns="http://www.w3.org/2000/svg">
<path d="M25.9997 8.125C23.8448 8.125 21.7782 8.98102 20.2544 10.5048C18.7307 12.0285 17.8747 14.0951 17.8747 16.25C17.8747 18.4049 18.7307 20.4715 20.2544 21.9952C21.7782 23.519 23.8448 24.375 25.9997 24.375C28.1546 24.375 30.2212 23.519 31.7449 21.9952C33.2686 20.4715 34.1247 18.4049 34.1247 16.25C34.1247 14.0951 33.2686 12.0285 31.7449 10.5048C30.2212 8.98102 28.1546 8.125 25.9997 8.125ZM17.333 28.7083C15.1781 28.7083 13.1115 29.5644 11.5878 31.0881C10.064 32.6118 9.20801 34.6784 9.20801 36.8333V39.4073C9.20801 41.041 10.391 42.432 12.003 42.6942C21.272 44.2087 30.7273 44.2087 39.9963 42.6942C40.7759 42.5659 41.4847 42.1652 41.9966 41.5633C42.5084 40.9614 42.79 40.1974 42.7913 39.4073V36.8333C42.7913 34.6784 41.9353 32.6118 40.4116 31.0881C38.8878 29.5644 36.8212 28.7083 34.6663 28.7083H33.9297C33.5252 28.7098 33.1323 28.7719 32.751 28.8947L30.8747 29.5078C27.7069 30.542 24.2924 30.542 21.1247 29.5078L19.2483 28.8947C18.868 28.7727 18.4712 28.7098 18.0718 28.7083H17.333Z" fill="#57C200"/>
</svg>
