<svg width="52" height="52" viewBox="0 0 52 52" fill="none" xmlns="http://www.w3.org/2000/svg">
<path d="M22.1793 25.962C19.4734 25.962 17.1569 24.8623 15.23 22.6629C13.3031 20.4635 12.3396 17.8195 12.3396 14.731C12.3396 11.6425 13.3031 8.99852 15.23 6.79911C17.1569 4.5997 19.4734 3.5 22.1793 3.5C24.8852 3.5 27.2016 4.5997 29.1285 6.79911C31.0554 8.99852 32.0189 11.6425 32.0189 14.731C32.0189 17.8195 31.0554 20.4635 29.1285 22.6629C27.2016 24.8623 24.8852 25.962 22.1793 25.962ZM2.5 48.424V40.5623C2.5 38.9245 2.85915 37.4504 3.57744 36.1401C4.29573 34.8298 5.24854 33.8237 6.43585 33.1218C8.97776 31.6711 11.5607 30.5836 14.1846 29.8592C16.8085 29.1348 19.4734 28.7717 22.1793 28.7698C23.9012 28.7698 25.6133 28.9223 27.3155 29.2274C29.0178 29.5326 30.7291 29.9883 32.4494 30.5948C29.7435 32.4667 28.0625 35.1462 27.4066 38.6334C26.7506 42.1206 27.2836 45.3842 29.0055 48.424H2.5Z" fill="#00C4FF"/>
<path d="M34.9452 46.6971C35.4544 46.6971 35.9427 46.4948 36.3027 46.1348C36.6628 45.7748 36.8651 45.2865 36.8651 44.7773C36.8651 44.2681 36.6628 43.7798 36.3027 43.4198C35.9427 43.0597 35.4544 42.8575 34.9452 42.8575C34.4361 42.8575 33.9477 43.0597 33.5877 43.4198C33.2277 43.7798 33.0254 44.2681 33.0254 44.7773C33.0254 45.2865 33.2277 45.7748 33.5877 46.1348C33.9477 46.4948 34.4361 46.6971 34.9452 46.6971ZM44.9283 46.6971C45.4375 46.6971 45.9258 46.4948 46.2859 46.1348C46.6459 45.7748 46.8482 45.2865 46.8482 44.7773C46.8482 44.2681 46.6459 43.7798 46.2859 43.4198C45.9258 43.0597 45.4375 42.8575 44.9283 42.8575C44.4192 42.8575 43.9309 43.0597 43.5708 43.4198C43.2108 43.7798 43.0085 44.2681 43.0085 44.7773C43.0085 45.2865 43.2108 45.7748 43.5708 46.1348C43.9309 46.4948 44.4192 46.6971 44.9283 46.6971Z" fill="#00C4FF" stroke="#00C4FF" stroke-linejoin="round"/>
<path d="M36.626 45.7016L37.4411 44.3204L43.9686 33.0146" fill="#00C4FF"/>
<path d="M36.626 45.7016L37.4411 44.3204L43.9686 33.0146" stroke="#00C4FF" stroke-linecap="round"/>
<path d="M35.9033 32.9403L42.4307 44.2462L43.2486 45.7026" fill="#00C4FF"/>
<path d="M35.9033 32.9403L42.4307 44.2462L43.2486 45.7026" stroke="#00C4FF" stroke-linecap="round"/>
</svg>
