<svg width="52" height="52" viewBox="0 0 52 52" fill="none" xmlns="http://www.w3.org/2000/svg">
<path d="M45.7167 6.28333H6.28333V3.25H45.7167V6.28333ZM6.31367 10.5361C6.38236 10.1924 6.56797 9.88308 6.83894 9.66078C7.10991 9.43847 7.44951 9.31688 7.8 9.31667H44.2C44.5505 9.31688 44.8901 9.43847 45.1611 9.66078C45.432 9.88308 45.6176 10.1924 45.6863 10.5361L48.7197 25.7027C48.7636 25.9227 48.7583 26.1496 48.7039 26.3673C48.6496 26.5849 48.5477 26.7878 48.4056 26.9613C48.2634 27.1348 48.0845 27.2746 47.8818 27.3706C47.6791 27.4666 47.4576 27.5165 47.2333 27.5167H4.76667C4.54237 27.5165 4.32089 27.4666 4.11819 27.3706C3.91548 27.2746 3.73661 27.1348 3.59445 26.9613C3.45228 26.7878 3.35037 26.5849 3.29606 26.3673C3.24174 26.1496 3.23637 25.9227 3.28033 25.7027L6.31367 10.5361ZM6.28333 30.55V45.7167H3.25V48.75H48.75V45.7167H45.7167V30.55H39.65V36.6167H12.35V30.55H6.28333Z" fill="#EE2D7A"/>
<path d="M15.3838 30.5498H36.6171V33.5831H15.3838V30.5498Z" fill="#EE2D7A"/>
</svg>
