<svg width="24" height="24" viewBox="0 0 24 24" fill="none" xmlns="http://www.w3.org/2000/svg">
<mask id="path-1-inside-1_0_221" fill="white">
<path fill-rule="evenodd" clip-rule="evenodd" d="M12.5932 23.2584L12.5822 23.2604L12.5112 23.2954L12.4912 23.2994L12.4772 23.2954L12.4062 23.2604C12.3955 23.2571 12.3875 23.2588 12.3822 23.2654L12.3782 23.2754L12.3612 23.7034L12.3662 23.7234L12.3762 23.7364L12.4802 23.8104L12.4952 23.8144L12.5072 23.8104L12.6112 23.7364L12.6232 23.7204L12.6272 23.7034L12.6102 23.2764C12.6075 23.2658 12.6018 23.2598 12.5932 23.2584ZM12.8582 23.1454L12.8452 23.1474L12.6602 23.2404L12.6502 23.2504L12.6472 23.2614L12.6652 23.6914L12.6702 23.7034L12.6782 23.7104L12.8792 23.8034C12.8918 23.8068 12.9015 23.8041 12.9082 23.7954L12.9122 23.7814L12.8782 23.1674C12.8748 23.1554 12.8682 23.1481 12.8582 23.1454ZM12.1432 23.1474C12.1388 23.1448 12.1335 23.1439 12.1285 23.145C12.1234 23.1461 12.119 23.1491 12.1162 23.1534L12.1102 23.1674L12.0762 23.7814C12.0768 23.7934 12.0825 23.8014 12.0932 23.8054L12.1082 23.8034L12.3092 23.7104L12.3192 23.7024L12.3232 23.6914L12.3402 23.2614L12.3372 23.2494L12.3272 23.2394L12.1432 23.1474Z"/>
</mask>
<path d="M12.5932 23.2584L12.7452 22.2701L12.5793 22.2445L12.4142 22.2746L12.5932 23.2584ZM12.5822 23.2604L12.4032 22.2766L12.2655 22.3016L12.14 22.3635L12.5822 23.2604ZM12.5112 23.2954L12.7073 24.276L12.8358 24.2503L12.9533 24.1924L12.5112 23.2954ZM12.4912 23.2994L12.2165 24.261L12.4496 24.3275L12.6873 24.28L12.4912 23.2994ZM12.4772 23.2954L12.035 24.1924L12.1158 24.2322L12.2025 24.257L12.4772 23.2954ZM12.4062 23.2604L12.8483 22.3635L12.7786 22.3291L12.7044 22.3059L12.4062 23.2604ZM12.3822 23.2654L11.6013 22.6407L11.5087 22.7565L11.4537 22.8941L12.3822 23.2654ZM12.3782 23.2754L11.4497 22.9041L11.3858 23.0638L11.379 23.2357L12.3782 23.2754ZM12.3612 23.7034L11.362 23.6637L11.3563 23.8069L11.391 23.946L12.3612 23.7034ZM12.3662 23.7234L11.396 23.966L11.4465 24.168L11.5735 24.3331L12.3662 23.7234ZM12.3762 23.7364L11.5835 24.3461L11.6747 24.4646L11.7964 24.5512L12.3762 23.7364ZM12.4802 23.8104L11.9004 24.6252L12.0478 24.7301L12.2225 24.7767L12.4802 23.8104ZM12.4952 23.8144L12.2375 24.7807L12.5271 24.8579L12.8114 24.7631L12.4952 23.8144ZM12.5072 23.8104L12.8234 24.7591L12.9652 24.7119L13.0869 24.6252L12.5072 23.8104ZM12.6112 23.7364L13.1909 24.5512L13.3178 24.461L13.4112 24.3364L12.6112 23.7364ZM12.6232 23.7204L13.4232 24.3204L13.5487 24.1531L13.5966 23.9494L12.6232 23.7204ZM12.6272 23.7034L13.6006 23.9324L13.6318 23.7998L13.6264 23.6636L12.6272 23.7034ZM12.6102 23.2764L13.6094 23.2366L13.6053 23.1338L13.5803 23.0339L12.6102 23.2764ZM12.8582 23.1454L13.1158 22.1792L12.9133 22.1252L12.7062 22.157L12.8582 23.1454ZM12.8452 23.1474L12.6932 22.159L12.5371 22.183L12.396 22.254L12.8452 23.1474ZM12.6602 23.2404L12.211 22.347L12.067 22.4194L11.9531 22.5333L12.6602 23.2404ZM12.6502 23.2504L11.9431 22.5433L11.7553 22.7311L11.6854 22.9874L12.6502 23.2504ZM12.6472 23.2614L11.6824 22.9984L11.6416 23.1481L11.648 23.3032L12.6472 23.2614ZM12.6652 23.6914L11.666 23.7332L11.6735 23.9114L11.7421 24.0761L12.6652 23.6914ZM12.6702 23.7034L11.7471 24.0881L11.8366 24.3028L12.0117 24.456L12.6702 23.7034ZM12.6782 23.7104L12.0197 24.463L12.1278 24.5576L12.2583 24.618L12.6782 23.7104ZM12.8792 23.8034L12.4593 24.711L12.5393 24.748L12.6247 24.7705L12.8792 23.8034ZM12.9082 23.7954L13.7008 24.4051L13.8172 24.2538L13.8697 24.0701L12.9082 23.7954ZM12.9122 23.7814L13.8737 24.0561L13.92 23.8942L13.9106 23.7261L12.9122 23.7814ZM12.8782 23.1674L13.8766 23.1121L13.8707 23.0041L13.8417 22.8998L12.8782 23.1674ZM12.1432 23.1474L11.6249 24.0026L11.6596 24.0237L11.696 24.0419L12.1432 23.1474ZM12.1162 23.1534L11.2845 22.5982L11.2333 22.6748L11.197 22.7595L12.1162 23.1534ZM12.1102 23.1674L11.191 22.7735L11.1215 22.9358L11.1117 23.1121L12.1102 23.1674ZM12.0762 23.7814L11.0777 23.7261L11.0746 23.7815L11.0777 23.8369L12.0762 23.7814ZM12.0932 23.8054L11.742 24.7418L11.9768 24.8298L12.2254 24.7966L12.0932 23.8054ZM12.1082 23.8034L12.2404 24.7946L12.3906 24.7746L12.5281 24.711L12.1082 23.8034ZM12.3092 23.7104L12.7291 24.618L12.8391 24.5671L12.9338 24.4913L12.3092 23.7104ZM12.3192 23.7024L12.9438 24.4833L13.163 24.308L13.259 24.0442L12.3192 23.7024ZM12.3232 23.6914L13.263 24.0332L13.3162 23.8867L13.3224 23.7309L12.3232 23.6914ZM12.3402 23.2614L13.3394 23.3009L13.345 23.1578L13.3103 23.0189L12.3402 23.2614ZM12.3372 23.2494L13.3073 23.0069L13.2401 22.7382L13.0443 22.5423L12.3372 23.2494ZM12.3272 23.2394L13.0343 22.5323L12.9195 22.4176L12.7744 22.345L12.3272 23.2394ZM12.4142 22.2746L12.4032 22.2766L12.7611 24.2443L12.7721 24.2423L12.4142 22.2746ZM12.14 22.3635L12.069 22.3985L12.9533 24.1924L13.0243 24.1574L12.14 22.3635ZM12.3151 22.3148L12.2951 22.3188L12.6873 24.28L12.7073 24.276L12.3151 22.3148ZM12.7659 22.3379L12.7519 22.3339L12.2025 24.257L12.2165 24.261L12.7659 22.3379ZM12.9193 22.3985L12.8483 22.3635L11.964 24.1574L12.035 24.1924L12.9193 22.3985ZM12.7044 22.3059C12.5936 22.2713 12.4091 22.2342 12.1883 22.2802C11.9458 22.3307 11.7422 22.4646 11.6013 22.6407L13.163 23.8901C13.0275 24.0596 12.8305 24.1893 12.5961 24.2382C12.3832 24.2825 12.208 24.2462 12.1079 24.2149L12.7044 22.3059ZM11.4537 22.8941L11.4497 22.9041L13.3067 23.6468L13.3107 23.6368L11.4537 22.8941ZM11.379 23.2357L11.362 23.6637L13.3604 23.7431L13.3774 23.3151L11.379 23.2357ZM11.391 23.946L11.396 23.966L13.3363 23.4809L13.3313 23.4609L11.391 23.946ZM11.5735 24.3331L11.5835 24.3461L13.1688 23.1267L13.1588 23.1137L11.5735 24.3331ZM11.7964 24.5512L11.9004 24.6252L13.0599 22.9956L12.9559 22.9216L11.7964 24.5512ZM12.2225 24.7767L12.2375 24.7807L12.7528 22.8482L12.7378 22.8442L12.2225 24.7767ZM12.8114 24.7631L12.8234 24.7591L12.191 22.8617L12.179 22.8657L12.8114 24.7631ZM13.0869 24.6252L13.1909 24.5512L12.0314 22.9216L11.9274 22.9956L13.0869 24.6252ZM13.4112 24.3364L13.4232 24.3204L11.8232 23.1204L11.8112 23.1364L13.4112 24.3364ZM13.5966 23.9494L13.6006 23.9324L11.6538 23.4744L11.6498 23.4914L13.5966 23.9494ZM13.6264 23.6636L13.6094 23.2366L11.611 23.3162L11.628 23.7432L13.6264 23.6636ZM13.5803 23.0339C13.5507 22.9155 13.4843 22.7397 13.3309 22.5773C13.1654 22.4021 12.9547 22.3023 12.7452 22.2701L12.4411 24.2468C12.2403 24.2159 12.0367 24.1198 11.8769 23.9505C11.7292 23.7941 11.667 23.6267 11.64 23.519L13.5803 23.0339ZM12.7062 22.157L12.6932 22.159L12.9972 24.1358L13.0102 24.1338L12.7062 22.157ZM12.396 22.254L12.211 22.347L13.1093 24.1339L13.2943 24.0409L12.396 22.254ZM11.9531 22.5333L11.9431 22.5433L13.3573 23.9575L13.3673 23.9475L11.9531 22.5333ZM11.6854 22.9874L11.6824 22.9984L13.6119 23.5245L13.6149 23.5135L11.6854 22.9874ZM11.648 23.3032L11.666 23.7332L13.6643 23.6496L13.6463 23.2196L11.648 23.3032ZM11.7421 24.0761L11.7471 24.0881L13.5932 23.3188L13.5882 23.3068L11.7421 24.0761ZM12.0117 24.456L12.0197 24.463L13.3367 22.9578L13.3287 22.9508L12.0117 24.456ZM12.2583 24.618L12.4593 24.711L13.2991 22.8959L13.0981 22.8029L12.2583 24.618ZM12.6247 24.7705C12.7508 24.8037 12.9424 24.8285 13.1618 24.7679C13.3952 24.7035 13.5777 24.5652 13.7008 24.4051L12.1155 23.1857C12.232 23.0343 12.4063 22.9016 12.63 22.8399C12.8398 22.7821 13.0202 22.8065 13.1337 22.8364L12.6247 24.7705ZM13.8697 24.0701L13.8737 24.0561L11.9506 23.5067L11.9466 23.5207L13.8697 24.0701ZM13.9106 23.7261L13.8766 23.1121L11.8797 23.2227L11.9137 23.8367L13.9106 23.7261ZM13.8417 22.8998C13.7662 22.6279 13.5429 22.2931 13.1158 22.1792L12.6005 24.1117C12.4286 24.0658 12.2625 23.9706 12.1308 23.8256C12.0054 23.6878 11.9444 23.542 11.9147 23.4351L13.8417 22.8998ZM12.6615 22.2922C12.4366 22.1559 12.1679 22.1118 11.9115 22.1688L12.3454 24.1212C12.0991 24.1759 11.8409 24.1336 11.6249 24.0026L12.6615 22.2922ZM11.9115 22.1688C11.6551 22.2258 11.4304 22.3796 11.2845 22.5982L12.9479 23.7086C12.8077 23.9187 12.5918 24.0664 12.3454 24.1212L11.9115 22.1688ZM11.197 22.7595L11.191 22.7735L13.0293 23.5614L13.0353 23.5474L11.197 22.7595ZM11.1117 23.1121L11.0777 23.7261L13.0746 23.8367L13.1086 23.2227L11.1117 23.1121ZM11.0777 23.8369C11.0861 23.9882 11.1311 24.1855 11.2649 24.3744C11.4012 24.5669 11.5806 24.6812 11.742 24.7418L12.4443 22.8691C12.5951 22.9257 12.7663 23.034 12.8969 23.2184C13.0251 23.3994 13.0669 23.5866 13.0746 23.726L11.0777 23.8369ZM12.2254 24.7966L12.2404 24.7946L11.9759 22.8122L11.961 22.8142L12.2254 24.7966ZM12.5281 24.711L12.7291 24.618L11.8893 22.8029L11.6883 22.8959L12.5281 24.711ZM12.9338 24.4913L12.9438 24.4833L11.6945 22.9215L11.6845 22.9295L12.9338 24.4913ZM13.259 24.0442L13.263 24.0332L11.3834 23.3497L11.3794 23.3607L13.259 24.0442ZM13.3224 23.7309L13.3394 23.3009L11.341 23.2219L11.324 23.6519L13.3224 23.7309ZM13.3103 23.0189L13.3073 23.0069L11.367 23.492L11.37 23.504L13.3103 23.0189ZM13.0443 22.5423L13.0343 22.5323L11.6201 23.9465L11.6301 23.9565L13.0443 22.5423ZM12.7744 22.345L12.5904 22.253L11.696 24.0419L11.88 24.1339L12.7744 22.345Z" fill="#757575" mask="url(#path-1-inside-1_0_221)"/>
<path d="M21.388 7.68401L21.39 7.68669C21.4573 7.77516 21.4932 7.88354 21.492 7.99469L21.4867 8.5H21.5V9V9.00003C21.5001 9.85259 21.1889 10.6759 20.625 11.3153L20.5 11.457V11.646V19C20.5 19.3978 20.342 19.7794 20.0607 20.0607C19.7794 20.342 19.3978 20.5 19 20.5H5C4.60218 20.5 4.22064 20.342 3.93934 20.0607C3.65804 19.7794 3.5 19.3978 3.5 19V11.646V11.457L3.375 11.3153C2.81108 10.6759 2.49995 9.85259 2.5 9.00003V9V8.5H2.51334L2.50797 7.99469C2.50679 7.88353 2.54268 7.77516 2.60997 7.68669L2.60998 7.68669L2.612 7.684L5.3 4.1C5.43972 3.91371 5.6209 3.7625 5.82918 3.65836C6.03746 3.55422 6.26713 3.5 6.5 3.5H17.5C17.7329 3.5 17.9625 3.55422 18.1708 3.65836C18.3791 3.7625 18.5603 3.91371 18.7 4.1L21.388 7.68401ZM20.4997 9.01665L20.5169 8.5H20H16H15.5022L15.5 8.99776C15.4971 9.64649 15.7465 10.2709 16.1955 10.7392C16.6445 11.2075 17.2579 11.4828 17.9062 11.5072C18.5545 11.5315 19.1868 11.3029 19.6697 10.8696C20.1525 10.4364 20.448 9.83238 20.4938 9.18526L20.4944 9.17597L20.4947 9.16665L20.4997 9.01665ZM14.4997 9.01666L14.5169 8.5H14H10H9.50223L9.50001 8.99776C9.4971 9.64649 9.74649 10.2709 10.1955 10.7392C10.6445 11.2075 11.2579 11.4828 11.9062 11.5072C12.5545 11.5315 13.1868 11.3029 13.6697 10.8696C14.1525 10.4364 14.448 9.83238 14.4938 9.18526L14.4944 9.17597L14.4947 9.16666L14.4997 9.01666ZM8.49972 9.01666L8.51694 8.5H8H4H3.50223L3.50001 8.99776C3.4971 9.64649 3.74649 10.2709 4.19548 10.7392C4.64447 11.2075 5.2579 11.4828 5.90618 11.5072C6.55446 11.5315 7.18681 11.3029 7.66965 10.8696C8.15249 10.4364 8.448 9.83238 8.49375 9.18526L8.49441 9.17597L8.49472 9.16666L8.49972 9.01666Z" stroke="#757575"/>
</svg>
