<svg width="180" height="60" viewBox="0 0 180 60" fill="none" xmlns="http://www.w3.org/2000/svg">
<g clip-path="url(#clip0_0_253)">
<path d="M10.6756 52.0852C9.36322 54.6784 7.30484 56.5214 5.39948 56.225C4.22429 56.0403 2.82219 54.5052 4.06598 51.0039C5.30977 47.5027 8.65644 46.2392 10.1015 46.8115C11.5083 47.368 11.9834 49.4924 10.6756 52.0852ZM19.7919 34.1654C19.1064 34.2172 18.5034 33.7065 18.4516 33.0197C18.4 32.3375 18.9145 31.7377 19.6046 31.6855C20.2946 31.6334 20.893 32.1445 20.9449 32.8313C20.9964 33.5135 20.4819 34.1133 19.7919 34.1654ZM34.5842 5.70155C34.161 6.34544 21.5338 25.8054 18.5482 30.6853C18.3546 31.0012 18.2025 31.2538 18.0965 31.4426C16.3133 34.5395 14.8286 41.1 10.3942 43.5814C7.55805 45.1726 4.29874 46.1838 2.50322 49.4856C0.886088 52.4542 1.27259 56.6527 4.49956 57.4797C7.73113 58.3063 10.4507 54.8048 12.2143 54.755C13.9828 54.7094 13.574 53.4006 13.1142 51.2334C12.6101 48.847 13.1373 45.6595 14.7122 43.4174C17.9976 38.7698 20.9241 35.6189 22.5765 32.7497C23.8062 30.5939 33.5228 9.96316 34.597 5.68667C34.5881 5.69198 34.5885 5.69659 34.5842 5.70155Z" fill="#EE2D7A"/>
<path d="M22.2543 33.1019L18.6328 30.4024C21.9775 25.7614 36.039 7.30841 36.505 6.69824C33.617 11.917 21.5807 26.4317 22.2543 33.1019Z" fill="#EE2D7A"/>
<path d="M11.1085 23.011C10.7902 22.4378 10.4672 21.86 10.1443 21.2729C6.85036 15.3145 3.44109 8.86151 2.7168 6.67969C2.7168 6.67969 7.59312 13.0772 12.3541 19.3684C12.6816 19.8076 13.0138 20.2375 13.3367 20.672C12.5479 21.4208 11.8005 22.1974 11.1085 23.011ZM41.9995 59.6119C42.018 60.407 40.0804 59.8985 37.7552 58.8723C35.6377 57.9385 33.8939 56.2883 32.4176 55.4886C30.9459 54.7906 29.668 53.88 28.7269 53.9262C26.96 54.0094 27.2737 52.6735 27.5643 50.4825C27.8873 48.0603 27.1261 44.9262 25.3822 42.8091C21.7561 38.4224 18.6006 35.4963 16.7414 32.7644C16.3631 32.2005 15.2467 30.3145 13.8027 27.7814C13.4382 27.1435 13.0553 26.4686 12.654 25.7613C13.3829 24.8785 14.241 23.9956 15.1775 23.1173C15.5973 23.6812 16.0125 24.2313 16.4139 24.7675C18.6975 27.8045 20.5197 30.259 21.1056 31.1234C23.1171 34.0772 25.0916 40.5071 29.7003 42.6473C32.6483 44.0156 35.9699 44.7783 38.0136 47.9401C39.1715 49.7336 39.5683 52.0772 38.9086 53.8291H38.9132C38.5949 55.6134 38.9593 57.1296 39.7205 57.9894C40.6386 59.0063 41.9857 59.0248 41.9995 59.6119ZM20.8657 32.7182C20.8657 32.0341 20.3075 31.4748 19.6155 31.4748C18.9235 31.4748 18.3653 32.0295 18.3653 32.7182C18.3653 33.4023 18.9235 33.9617 19.6155 33.9617C20.3029 33.9617 20.8657 33.4023 20.8657 32.7182ZM35.6239 54.8738C36.7818 54.6011 38.0643 52.9647 36.5604 49.5672C35.0564 46.1697 31.6241 45.162 30.2262 45.8415C28.8653 46.5025 28.5516 48.6566 30.0509 51.1435C31.5595 53.6304 33.7462 55.313 35.6239 54.8738Z" fill="#EE2D7A"/>
<path d="M39.2311 26.5701C36.7353 27.5871 31.5591 24.8043 28.6065 29.5978C28.3851 28.5901 27.9422 27.5871 27.2364 26.6117C25.9031 24.7627 23.7256 22.6456 21.4235 20.3991C20.9622 19.9507 20.4963 19.4931 20.0303 19.0354C19.426 19.5069 18.817 19.9923 18.2173 20.4823C18.7201 20.9815 19.2091 21.453 19.6889 21.9014C21.1421 23.2697 22.4662 24.4207 23.5641 25.4653C26.8396 28.5901 27.3563 32.3713 25.0035 35.4314C23.4996 37.3868 21.4789 39.4576 19.6197 41.5655C19.1353 42.1109 18.6648 42.6656 18.2127 43.2157C18.7017 43.7658 19.1815 44.3113 19.6151 44.8336C20.0534 44.3113 20.5286 43.7658 21.0176 43.2157C22.6876 41.339 24.5468 39.3791 25.8431 37.9045C26.2814 37.3729 27.3609 36.8228 28.6757 36.416C29.9952 36.0046 31.5453 35.7273 32.9385 35.7273C32.9385 35.7273 31.716 33.8737 28.7542 34.0771C32.0297 31.8583 37.2797 32.0385 39.2311 26.5701ZM29.2709 30.6009C30.0736 28.4977 32.4172 26.829 36.9798 27.5408C33.8519 27.7026 30.821 28.9877 29.2709 30.6009ZM16.8702 15.7858C13.1057 11.6857 12.7827 9.1017 13.4517 5.91218C13.9684 3.41141 16.4504 1.02158 19.6151 1.15563C24.3023 1.35902 24.9066 5.094 24.2192 6.67951C23.5411 8.26503 21.0591 9.52235 18.2542 8.20956C19.2968 10.3313 22.7015 10.7011 24.7175 8.81048C26.3137 7.30817 27.2871 3.80894 23.6933 1.2111C20.8146 -0.873647 15.5738 -0.328192 12.8243 3.34207C10.1808 6.8829 10.4714 11.4869 14.5127 16.4099C14.7619 16.7103 15.0064 17.0062 15.2555 17.2928C15.5415 17.621 15.8137 17.9399 16.0951 18.245C16.6856 17.7643 17.2761 17.2928 17.862 16.8398C17.6268 16.5948 17.3915 16.3498 17.1654 16.1048C17.0685 15.9985 16.967 15.8921 16.8702 15.7858Z" fill="#EE2D7A"/>
<path d="M13.8033 27.7807C12.3085 30.3416 12.4331 33.092 14.2277 35.4309C15.7316 37.3863 17.7523 39.4571 19.6207 41.565C20.1005 42.1105 20.5711 42.6605 21.0232 43.2106C21.5583 43.867 22.0612 44.5234 22.5133 45.1798C24.8015 48.5126 24.0588 51.7391 21.1939 52.5573C18.329 53.3801 16.5298 52.0026 15.9162 50.5604C15.1135 48.6744 17.1249 46.377 19.6622 47.8562C16.9357 48.2399 16.8896 51.6328 19.1686 51.9564C21.443 52.2799 22.4487 50.4263 22.0796 48.5126C21.932 47.7591 20.9355 46.3955 19.6207 44.8285C19.1824 44.3061 18.7073 43.7607 18.2182 43.2106C16.4467 41.2183 14.4584 39.1243 13.162 37.6313C10.4217 34.4741 9.31447 30.3323 11.9994 26.6112C12.2024 26.3293 12.4239 26.0427 12.6591 25.7607C13.3881 24.8778 14.2461 23.9949 15.1827 23.1166C16.1376 22.2291 17.171 21.3416 18.2275 20.4772C18.8272 19.9872 19.4362 19.5018 20.0405 19.0303C20.6541 18.5496 21.2538 18.0827 21.849 17.6251C26.3055 14.1813 27.8094 12.7021 28.7229 10.3262C29.1427 12.7853 27.5142 14.7915 24.7231 17.4171C23.5882 18.4849 22.4856 19.4741 21.4338 20.394C20.8386 20.9163 20.2573 21.4155 19.6991 21.8963C18.4997 22.9271 17.3925 23.8747 16.419 24.7622C16.1561 24.998 15.9116 25.2291 15.6717 25.4602C14.8874 26.2044 14.2646 26.981 13.8033 27.7807ZM17.171 16.1089C16.5298 16.488 15.8885 16.8809 15.2565 17.2923C14.2738 17.9302 13.3004 18.6143 12.3501 19.3678C11.6027 19.9548 10.8646 20.5835 10.1449 21.2676C9.85884 21.5357 9.57743 21.8085 9.29601 22.095C8.0827 23.3339 7.10005 24.7576 6.38037 26.246C4.8026 24.1567 2.37598 24.679 2.37598 24.679C3.81534 25.6636 4.92255 28.9826 4.93639 31.6081L4.941 31.6035C4.78415 34.6636 5.86367 37.4094 8.4287 38.773C5.54997 32.2876 7.56139 27.1752 11.1044 23.0057C11.7965 22.1921 12.5438 21.4155 13.3281 20.6713C14.2185 19.8254 15.155 19.0165 16.0915 18.2445C16.682 17.7638 17.2725 17.2923 17.8584 16.8393C19.6576 15.4479 21.3876 14.186 22.7901 13.0165C20.9447 14.0195 19.0486 14.9995 17.171 16.1089Z" fill="#EE2D7A"/>
<path d="M20.8657 32.718C20.8657 32.0339 20.3075 31.4746 19.6155 31.4746C18.9235 31.4746 18.3652 32.0293 18.3652 32.718C18.3652 33.4022 18.9235 33.9615 19.6155 33.9615C20.3028 33.9615 20.8657 33.4022 20.8657 32.718Z" fill="#FFE3EE"/>
</g>
<path d="M69.496 29.992L70.072 34.36C69.752 34.888 69.304 35.376 68.728 35.824C68.168 36.272 67.44 36.64 66.544 36.928C65.664 37.2 64.592 37.336 63.328 37.336C61.184 37.32 59.32 36.976 57.736 36.304C56.168 35.616 54.96 34.624 54.112 33.328C53.264 32.032 52.84 30.448 52.84 28.576C52.84 26.752 53.256 25.192 54.088 23.896C54.92 22.584 56.12 21.584 57.688 20.896C59.256 20.208 61.144 19.864 63.352 19.864C64.696 19.864 65.888 19.976 66.928 20.2C67.984 20.424 68.848 20.68 69.52 20.968L69.28 25.552H69.064C68.584 23.856 67.888 22.688 66.976 22.048C66.064 21.392 64.992 21.064 63.76 21.064C62.576 21.064 61.56 21.36 60.712 21.952C59.88 22.544 59.24 23.392 58.792 24.496C58.344 25.6 58.12 26.936 58.12 28.504C58.12 30.072 58.328 31.424 58.744 32.56C59.16 33.68 59.752 34.552 60.52 35.176C61.304 35.784 62.24 36.104 63.328 36.136C64.624 36.136 65.656 35.944 66.424 35.56C67.192 35.176 67.792 34.536 68.224 33.64C68.656 32.728 69.016 31.512 69.304 29.992H69.496ZM77.5593 22.6V31.648C77.5593 33.056 77.8633 34.16 78.4713 34.96C79.0953 35.744 79.9593 36.136 81.0633 36.136C82.1513 36.136 82.9913 35.768 83.5833 35.032C84.1753 34.28 84.4793 33.24 84.4953 31.912V22.6H86.3913V31.648C86.3913 33.408 85.8713 34.792 84.8313 35.8C83.7913 36.792 82.2873 37.288 80.3193 37.288C77.7113 37.288 75.8153 36.792 74.6313 35.8C73.4473 34.808 72.8553 33.44 72.8553 31.696V22.6H77.5593ZM72.9033 22.6V23.824H72.8553C72.8553 23.52 72.7513 23.272 72.5433 23.08C72.3353 22.888 72.0873 22.792 71.7993 22.792C71.7993 22.792 71.7433 22.792 71.6313 22.792C71.5353 22.792 71.4873 22.792 71.4873 22.792V22.6H72.9033ZM78.9273 22.6V22.792C78.9273 22.792 78.8713 22.792 78.7593 22.792C78.6473 22.792 78.5913 22.792 78.5913 22.792C78.3033 22.792 78.0553 22.888 77.8473 23.08C77.6553 23.272 77.5593 23.52 77.5593 23.824H77.5113V22.6H78.9273ZM84.5433 22.6V23.824H84.4953C84.4793 23.52 84.3673 23.272 84.1593 23.08C83.9673 22.888 83.7273 22.792 83.4393 22.792C83.4393 22.792 83.3833 22.792 83.2713 22.792C83.1753 22.792 83.1273 22.792 83.1273 22.792V22.6H84.5433ZM87.7593 22.6V22.792C87.7593 22.792 87.7033 22.792 87.5913 22.792C87.4953 22.792 87.4473 22.792 87.4473 22.792C87.1593 22.792 86.9113 22.888 86.7033 23.08C86.4953 23.272 86.3913 23.52 86.3913 23.824H86.3433V22.6H87.7593ZM97.9778 22.672V37H93.2498V22.672H97.9778ZM102.802 22.576V23.704H88.4258V22.576H102.802ZM102.802 23.608V26.728H102.562V26.608C102.578 25.696 102.338 24.992 101.842 24.496C101.346 23.984 100.642 23.72 99.7298 23.704V23.608H102.802ZM102.802 22.216V22.816L100.378 22.576C100.666 22.576 100.978 22.56 101.314 22.528C101.666 22.48 101.978 22.432 102.25 22.384C102.538 22.32 102.722 22.264 102.802 22.216ZM93.2978 35.512V37H91.7618V36.76C91.7618 36.76 91.8018 36.76 91.8818 36.76C91.9618 36.76 92.0018 36.76 92.0018 36.76C92.3538 36.76 92.6418 36.64 92.8658 36.4C93.1058 36.16 93.2338 35.864 93.2498 35.512H93.2978ZM97.8818 35.512H97.9778C97.9618 35.864 98.0738 36.16 98.3138 36.4C98.5698 36.64 98.8738 36.76 99.2258 36.76C99.2258 36.76 99.2658 36.76 99.3458 36.76C99.4258 36.76 99.4658 36.76 99.4658 36.76V37H97.8818V35.512ZM91.4978 23.608V23.704C90.5858 23.72 89.8818 23.984 89.3858 24.496C88.9058 24.992 88.6658 25.696 88.6658 26.608V26.728H88.4258V23.608H91.4978ZM88.4258 22.216C88.5538 22.264 88.7538 22.32 89.0258 22.384C89.2978 22.432 89.5938 22.48 89.9138 22.528C90.2498 22.56 90.5618 22.576 90.8498 22.576L88.4258 22.816V22.216ZM126.473 29.992L127.049 34.36C126.729 34.888 126.281 35.376 125.705 35.824C125.145 36.272 124.417 36.64 123.521 36.928C122.641 37.2 121.569 37.336 120.305 37.336C118.161 37.32 116.297 36.976 114.713 36.304C113.145 35.616 111.937 34.624 111.089 33.328C110.241 32.032 109.817 30.448 109.817 28.576C109.817 26.752 110.233 25.192 111.065 23.896C111.897 22.584 113.097 21.584 114.665 20.896C116.233 20.208 118.121 19.864 120.329 19.864C121.673 19.864 122.865 19.976 123.905 20.2C124.961 20.424 125.825 20.68 126.497 20.968L126.257 25.552H126.041C125.561 23.856 124.865 22.688 123.953 22.048C123.041 21.392 121.969 21.064 120.737 21.064C119.553 21.064 118.537 21.36 117.689 21.952C116.857 22.544 116.217 23.392 115.769 24.496C115.321 25.6 115.097 26.936 115.097 28.504C115.097 30.072 115.305 31.424 115.721 32.56C116.137 33.68 116.729 34.552 117.497 35.176C118.281 35.784 119.217 36.104 120.305 36.136C121.601 36.136 122.633 35.944 123.401 35.56C124.169 35.176 124.769 34.536 125.201 33.64C125.633 32.728 125.993 31.512 126.281 29.992H126.473ZM134.8 22.6H137.032C137.64 22.6 138.264 22.656 138.904 22.768C139.544 22.864 140.136 23.048 140.68 23.32C141.224 23.592 141.664 23.992 142 24.52C142.336 25.032 142.504 25.712 142.504 26.56C142.504 27.04 142.416 27.552 142.24 28.096C142.08 28.64 141.776 29.128 141.328 29.56C140.896 29.976 140.264 30.256 139.432 30.4C140.04 30.56 140.576 30.864 141.04 31.312C141.504 31.76 141.84 32.168 142.048 32.536C142.16 32.728 142.28 32.968 142.408 33.256C142.552 33.528 142.72 33.832 142.912 34.168C143.104 34.504 143.32 34.864 143.56 35.248C143.864 35.712 144.128 36.056 144.352 36.28C144.576 36.488 144.792 36.624 145 36.688C145.208 36.736 145.44 36.76 145.696 36.76V37H142.864C142.016 37 141.28 36.968 140.656 36.904C140.032 36.824 139.472 36.616 138.976 36.28C138.496 35.928 138.024 35.36 137.56 34.576C137.384 34.272 137.232 33.992 137.104 33.736C136.992 33.464 136.896 33.2 136.816 32.944C136.736 32.688 136.664 32.424 136.6 32.152C136.552 31.88 136.496 31.6 136.432 31.312C136.32 30.752 136.176 30.392 136 30.232C135.824 30.056 135.704 29.96 135.64 29.944V29.752C135.656 29.752 135.672 29.752 135.688 29.752C135.704 29.752 135.728 29.752 135.76 29.752C136.016 29.752 136.272 29.672 136.528 29.512C136.784 29.352 137.008 29.088 137.2 28.72C137.392 28.336 137.52 27.808 137.584 27.136C137.584 27.088 137.592 27 137.608 26.872C137.624 26.744 137.624 26.576 137.608 26.368C137.576 25.68 137.456 25.16 137.248 24.808C137.04 24.44 136.8 24.184 136.528 24.04C136.272 23.896 136.04 23.816 135.832 23.8C135.624 23.768 135.504 23.752 135.472 23.752C135.44 23.752 135.4 23.752 135.352 23.752C135.32 23.752 135.192 23.752 134.968 23.752C134.952 23.752 134.928 23.656 134.896 23.464C134.88 23.272 134.856 23.08 134.824 22.888C134.808 22.696 134.8 22.6 134.8 22.6ZM134.992 22.6V37H130.264V22.6H134.992ZM130.336 35.512L130.312 37H128.776V36.76C128.808 36.76 128.84 36.76 128.872 36.76C128.92 36.76 128.976 36.76 129.04 36.76C129.36 36.76 129.64 36.64 129.88 36.4C130.136 36.16 130.264 35.864 130.264 35.512H130.336ZM130.336 24.088H130.264C130.264 23.72 130.144 23.424 129.904 23.2C129.664 22.96 129.384 22.84 129.064 22.84C129 22.84 128.944 22.84 128.896 22.84C128.848 22.84 128.808 22.84 128.776 22.84V22.6H130.312L130.336 24.088ZM134.944 35.512H134.992C134.992 35.928 135.136 36.24 135.424 36.448C135.712 36.656 135.992 36.76 136.264 36.76C136.264 36.76 136.288 36.76 136.336 36.76C136.384 36.76 136.432 36.76 136.48 36.76V37H134.968L134.944 35.512ZM150.993 22.6V37H146.289V22.6H150.993ZM156.057 35.896L157.017 37H150.945V35.896H156.057ZM155.457 29.344V30.472H150.945V29.344H155.457ZM156.513 22.6V23.704H150.945V22.6H156.513ZM157.737 31.96L157.065 37H152.601L153.297 35.896C153.921 35.896 154.513 35.744 155.073 35.44C155.649 35.12 156.153 34.672 156.585 34.096C157.017 33.504 157.329 32.792 157.521 31.96H157.737ZM155.457 30.424V33.016H155.217V32.92C155.217 32.216 154.993 31.64 154.545 31.192C154.113 30.728 153.545 30.488 152.841 30.472V30.424H155.457ZM155.457 26.824V29.392H152.841V29.344C153.545 29.328 154.113 29.088 154.545 28.624C154.993 28.16 155.217 27.576 155.217 26.872V26.824H155.457ZM156.513 23.656V26.776H156.273V26.656C156.273 25.728 156.033 25.008 155.553 24.496C155.073 23.984 154.377 23.72 153.465 23.704V23.656H156.513ZM156.513 22.24V22.816L154.137 22.6C154.569 22.6 155.025 22.56 155.505 22.48C156.001 22.384 156.337 22.304 156.513 22.24ZM146.361 35.512L146.337 37H144.777V36.76C144.777 36.76 144.817 36.76 144.897 36.76C144.977 36.76 145.025 36.76 145.041 36.76C145.377 36.76 145.665 36.64 145.905 36.4C146.161 36.16 146.289 35.864 146.289 35.512H146.361ZM146.361 24.112H146.289C146.289 23.744 146.161 23.44 145.905 23.2C145.665 22.96 145.377 22.84 145.041 22.84C145.025 22.84 144.977 22.84 144.897 22.84C144.817 22.84 144.777 22.84 144.777 22.84V22.6H146.337L146.361 24.112ZM158.774 22.744H163.67L166.478 29.176L164.414 37.24L158.774 22.744ZM170.054 22.288L170.654 24.664L165.182 34.984C165.182 34.984 165.134 35.096 165.038 35.32C164.942 35.528 164.846 35.808 164.75 36.16C164.654 36.496 164.606 36.856 164.606 37.24H164.414L163.646 34.24L169.886 22.288H170.054ZM170.054 22.288L174.83 30.28L173.342 37.24L167.99 28.192L170.054 22.288ZM177.71 22.744L173.798 34.984C173.798 34.984 173.766 35.104 173.702 35.344C173.638 35.568 173.582 35.856 173.534 36.208C173.486 36.56 173.486 36.904 173.534 37.24H173.342L172.43 35.224L176.054 22.744H177.71ZM175.67 24.064C175.766 23.648 175.726 23.344 175.55 23.152C175.374 22.944 175.142 22.84 174.854 22.84H174.686V22.6H179.27V22.84C179.27 22.84 179.238 22.84 179.174 22.84C179.126 22.84 179.102 22.84 179.102 22.84C178.798 22.84 178.454 22.936 178.07 23.128C177.686 23.304 177.422 23.624 177.278 24.088L175.67 24.064ZM164.246 24.088H159.278C159.102 23.624 158.838 23.304 158.486 23.128C158.134 22.936 157.798 22.84 157.478 22.84C157.478 22.84 157.454 22.84 157.406 22.84C157.342 22.84 157.31 22.84 157.31 22.84V22.6H165.206V22.84H164.99C164.734 22.84 164.502 22.944 164.294 23.152C164.102 23.36 164.086 23.672 164.246 24.088Z" fill="#EE2D7A"/>
<defs>
<clipPath id="clip0_0_253">
<rect width="42" height="60" fill="white"/>
</clipPath>
</defs>
</svg>
