<svg width="24" height="24" viewBox="0 0 24 24" fill="none" xmlns="http://www.w3.org/2000/svg">
<path d="M12 14C13.1046 14 14 13.1046 14 12C14 10.8954 13.1046 10 12 10C10.8954 10 10 10.8954 10 12C10 13.1046 10.8954 14 12 14Z" stroke="#757575"/>
<path d="M5.3988 5.88001L5.6488 5.44601C5.55065 5.38926 5.43613 5.36755 5.32402 5.38445C5.21191 5.40135 5.10887 5.45585 5.0318 5.53901L5.3988 5.88001ZM3.3998 9.34401L2.9218 9.19601C2.88853 9.30422 2.89297 9.42051 2.93439 9.52588C2.9758 9.63124 3.05175 9.71942 3.1498 9.77601L3.3998 9.34401ZM3.3978 14.655L3.1478 14.222C3.04954 14.2786 2.97345 14.367 2.93202 14.4726C2.89059 14.5781 2.88628 14.6947 2.9198 14.803L3.3978 14.655ZM5.3978 18.119L5.0308 18.459C5.10787 18.5422 5.21091 18.5967 5.32302 18.6136C5.43513 18.6305 5.54965 18.6088 5.6478 18.552L5.3978 18.119ZM9.9978 20.774H9.4978C9.49775 20.8875 9.53633 20.9977 9.60721 21.0864C9.67809 21.1751 9.77705 21.237 9.8878 21.262L9.9978 20.774ZM13.9988 20.776L14.1098 21.264C14.2204 21.2388 14.3191 21.1768 14.3898 21.0881C14.4605 20.9995 14.4989 20.8894 14.4988 20.776H13.9988ZM18.5998 18.12L18.3498 18.553C18.448 18.6098 18.5625 18.6315 18.6746 18.6146C18.7867 18.5977 18.8897 18.5432 18.9668 18.46L18.5998 18.12ZM20.5978 14.654L21.0758 14.802C21.1091 14.6938 21.1046 14.5775 21.0632 14.4721C21.0218 14.3668 20.9459 14.2786 20.8478 14.222L20.5978 14.654ZM20.5998 9.34301L20.8498 9.77601C20.9481 9.71938 21.0242 9.63103 21.0656 9.52545C21.107 9.41988 21.1113 9.30335 21.0778 9.19501L20.5998 9.34301ZM18.5998 5.87801L18.9668 5.53801C18.8897 5.45485 18.7867 5.40035 18.6746 5.38345C18.5625 5.36655 18.448 5.38826 18.3498 5.44501L18.5998 5.87801ZM13.9998 3.22501H14.4998C14.4997 3.11178 14.4611 3.00195 14.3905 2.91348C14.3198 2.82501 14.2212 2.76314 14.1108 2.73801L13.9998 3.22501ZM9.9998 3.22301L9.8888 2.73501C9.77805 2.75999 9.67909 2.82191 9.60821 2.91061C9.53733 2.9993 9.49874 3.10947 9.4988 3.22301H9.9998ZM3.8778 9.49201C4.25331 8.27327 4.89824 7.15464 5.7648 6.21901L5.0318 5.53901C4.06294 6.5846 3.34179 7.83381 2.9218 9.19601L3.8778 9.49201ZM4.6378 16.25C4.3198 15.6996 4.06454 15.1153 3.8768 14.508L2.9208 14.804C3.13116 15.4825 3.41694 16.1352 3.7728 16.75L4.6378 16.25ZM5.7658 17.78C5.33413 17.3137 4.9551 16.8005 4.6378 16.25L3.7728 16.75C4.12725 17.3653 4.54955 17.9388 5.0318 18.46L5.7658 17.78ZM13.8888 20.29C12.6453 20.5728 11.354 20.5721 10.1108 20.288L9.8888 21.262C11.2781 21.5797 12.7211 21.5807 14.1108 21.265L13.8888 20.29ZM20.1218 14.508C19.7463 15.7268 19.1014 16.8454 18.2348 17.781L18.9678 18.461C19.9367 17.4154 20.6578 16.1652 21.0778 14.803L20.1218 14.508ZM19.3618 7.75001C19.6858 8.31301 19.9388 8.89701 20.1238 9.49201L21.0788 9.19601C20.8684 8.51753 20.5827 7.86478 20.2268 7.25001L19.3618 7.75001ZM18.2338 6.22001C18.6655 6.68628 19.0445 7.19949 19.3618 7.75001L20.2268 7.25001C19.8724 6.63475 19.4501 6.06117 18.9678 5.54001L18.2338 6.22001ZM10.1108 3.71001C11.3543 3.42725 12.6456 3.42794 13.8888 3.71201L14.1108 2.73801C12.7215 2.42034 11.2785 2.41931 9.8888 2.73501L10.1108 3.71001ZM10.4998 5.07201V3.22201H9.4998V5.07201H10.4998ZM7.2498 6.37001L5.6488 5.44601L5.1488 6.31101L6.7488 7.23601L7.2498 6.37001ZM4.7498 13.298L3.1478 14.222L3.6488 15.088L5.2488 14.164L4.7498 13.298ZM5.2498 9.83401L3.6498 8.91101L3.1498 9.77701L4.7498 10.7L5.2498 9.83401ZM10.4998 20.774V18.927H9.4998V20.774H10.4998ZM6.7498 16.762L5.1488 17.686L5.6488 18.552L7.2488 17.628L6.7498 16.762ZM18.8508 17.687L17.2498 16.762L16.7498 17.629L18.3498 18.553L18.8508 17.687ZM14.4998 20.777V18.927H13.4998V20.777H14.4998ZM20.3508 8.91001L18.7498 9.83401L19.2498 10.7L20.8498 9.77601L20.3508 8.91001ZM20.8488 14.221L19.2498 13.3L18.7498 14.166L20.3498 15.089L20.8488 14.221ZM14.4998 5.07201V3.22501H13.4998V5.07201H14.4998ZM18.3508 5.44601L16.7498 6.37101L17.2498 7.23701L18.8508 6.31201L18.3508 5.44601ZM13.4998 5.07201C13.4998 6.99601 15.5828 8.19901 17.2498 7.23701L16.7498 6.37101C16.5217 6.5027 16.2629 6.57201 15.9996 6.57197C15.7362 6.57193 15.4774 6.50253 15.2494 6.37077C15.0213 6.239 14.832 6.04951 14.7004 5.82134C14.5688 5.59318 14.4996 5.33539 14.4998 5.07201H13.4998ZM18.7498 9.83501C17.0828 10.797 17.0828 13.203 18.7498 14.165L19.2498 13.299C19.0218 13.1673 18.8325 12.978 18.7008 12.75C18.5692 12.522 18.4999 12.2633 18.4999 12C18.4999 11.7367 18.5692 11.4781 18.7008 11.25C18.8325 11.022 19.0218 10.8327 19.2498 10.701L18.7498 9.83501ZM17.2498 16.763C15.5828 15.801 13.4998 17.002 13.4998 18.927H14.4998C14.4998 18.6637 14.5691 18.406 14.7008 18.178C14.8324 17.95 15.0218 17.7606 15.2498 17.629C15.4778 17.4973 15.7365 17.428 15.9998 17.428C16.2631 17.428 16.5218 17.4974 16.7498 17.629L17.2498 16.763ZM10.4998 18.927C10.4998 17.003 8.4168 15.801 6.7498 16.763L7.2498 17.629C7.4779 17.4973 7.73666 17.428 8.00004 17.428C8.26343 17.4281 8.52216 17.4975 8.75022 17.6292C8.97828 17.761 9.16762 17.9505 9.2992 18.1787C9.43079 18.4068 9.49997 18.6656 9.4998 18.929L10.4998 18.927ZM5.2498 14.165C6.9168 13.203 6.9168 10.797 5.2498 9.83501L4.7498 10.701C5.7498 11.278 5.7498 12.72 4.7498 13.298L5.2498 14.165ZM9.4998 5.07201C9.49962 5.33522 9.43018 5.59376 9.29845 5.82164C9.16672 6.04953 8.97735 6.23874 8.74935 6.37027C8.52135 6.5018 8.26276 6.57102 7.99954 6.57097C7.73633 6.57092 7.47775 6.50162 7.2498 6.37001L6.7498 7.23701C8.4168 8.19901 10.4998 6.99701 10.4998 5.07201H9.4998Z" fill="#757575"/>
</svg>
