<svg width="24" height="24" viewBox="0 0 24 24" fill="none" xmlns="http://www.w3.org/2000/svg">
<path d="M10.885 11.5C9.9575 11.5 9.16247 11.1314 8.4767 10.3486C7.78927 9.564 7.4425 8.6237 7.4425 7.5C7.4425 6.3763 7.78927 5.436 8.4767 4.65136C9.16247 3.86862 9.9575 3.5 10.885 3.5C11.8125 3.5 12.6075 3.86862 13.2933 4.65136C13.9808 5.436 14.3275 6.3763 14.3275 7.5C14.3275 8.6237 13.9808 9.564 13.2933 10.3486C12.6075 11.1314 11.8125 11.5 10.885 11.5ZM3.5 20.5V17.85C3.5 17.2695 3.62653 16.7629 3.87015 16.3185C4.11784 15.8666 4.43766 15.5328 4.82825 15.3011C5.81219 14.7399 6.8076 14.3215 7.81479 14.0435C8.82315 13.7651 9.84628 13.6257 10.8854 13.625C11.5455 13.625 12.2018 13.6835 12.8548 13.8005C13.2272 13.8673 13.6014 13.9529 13.9774 14.0576C13.205 14.8268 12.7093 15.8087 12.4881 16.9847C12.2565 18.2158 12.3676 19.3915 12.8217 20.5H3.5Z" stroke="#757575"/>
<g clip-path="url(#clip0_0_227)">
<path d="M15.6042 20.1254C15.7976 20.1254 15.983 20.0486 16.1198 19.9119C16.2565 19.7751 16.3333 19.5897 16.3333 19.3963C16.3333 19.2029 16.2565 19.0174 16.1198 18.8807C15.983 18.7439 15.7976 18.6671 15.6042 18.6671C15.4108 18.6671 15.2253 18.7439 15.0886 18.8807C14.9518 19.0174 14.875 19.2029 14.875 19.3963C14.875 19.5897 14.9518 19.7751 15.0886 19.9119C15.2253 20.0486 15.4108 20.1254 15.6042 20.1254ZM19.3958 20.1254C19.5892 20.1254 19.7747 20.0486 19.9114 19.9119C20.0482 19.7751 20.125 19.5897 20.125 19.3963C20.125 19.2029 20.0482 19.0174 19.9114 18.8807C19.7747 18.7439 19.5892 18.6671 19.3958 18.6671C19.2024 18.6671 19.017 18.7439 18.8802 18.8807C18.7435 19.0174 18.6667 19.2029 18.6667 19.3963C18.6667 19.5897 18.7435 19.7751 18.8802 19.9119C19.017 20.0486 19.2024 20.1254 19.3958 20.1254Z" stroke="#757575" stroke-width="0.7" stroke-linejoin="round"/>
<path d="M16.2422 19.7475L16.5518 19.2229L19.031 14.9288" stroke="#757575" stroke-width="0.7" stroke-linecap="round"/>
<path d="M15.9678 14.9005L18.4469 19.1946L18.7576 19.7477" stroke="#757575" stroke-width="0.7" stroke-linecap="round"/>
</g>
<defs>
<clipPath id="clip0_0_227">
<rect width="7" height="7" fill="white" transform="translate(14 14)"/>
</clipPath>
</defs>
</svg>
